<svg width="128" height="41" viewBox="0 0 128 41" fill="none" xmlns="http://www.w3.org/2000/svg">
<path d="M17.272 31.8037C17.868 28.3075 20.5839 26.0899 24.6998 26.0899H35.3957C39.3876 26.0899 40.2356 23.5052 40.2356 23.5052C39.6396 27.0014 38.0156 29.219 33.8997 29.219H22.9279C18.388 29.219 17.272 31.8037 17.272 31.8037Z" fill="#DF2325"/>
<path d="M35.2114 29.8858C34.3034 31.2314 33.2514 31.3498 31.2554 31.3498C29.2595 31.3498 26.9155 31.3932 23.6716 31.3498C20.1796 31.3024 17.4837 32.8571 17.2637 36.2389C18.1717 34.8933 19.3516 34.6486 21.3476 34.6486C23.3436 34.6486 24.5436 34.6052 27.7875 34.6486C31.2754 34.6999 34.0034 33.1807 35.2114 29.8858Z" fill="#EE4523"/>
<path d="M17.2715 39.0446C17.2715 37.699 19.1395 36.9769 21.3714 36.9769C23.6034 36.9769 27.9233 37.2689 29.7593 35.9904C29.2593 37.4662 24.6994 40.8479 20.1434 40.8479C18.0795 40.8479 17.2715 39.8653 17.2715 39.0446Z" fill="#FE5F3E"/>
<path d="M9.16748 17.9375C12.7114 18.5255 14.9594 21.2048 14.9594 25.2652V35.8168C14.9594 39.7549 17.5793 40.5914 17.5793 40.5914C14.0354 40.0035 11.7874 38.4014 11.7874 34.341V23.5171C11.7874 19.0345 9.16748 17.9375 9.16748 17.9375Z" fill="#172C4F"/>
<path d="M11.1108 35.631C9.74681 34.7352 9.62682 33.6974 9.62682 31.7284C9.62682 29.7593 9.58282 27.447 9.62682 24.2468C9.67482 20.8019 8.09884 18.1423 4.6709 17.9253C6.03488 18.821 6.28287 19.9851 6.28287 21.9542C6.28287 23.9232 6.32687 25.107 6.28287 28.3072C6.23487 31.752 7.77085 34.4393 11.1108 35.631Z" fill="#264A74"/>
<path d="M1.83197 17.9383C3.19595 17.9383 3.92793 19.7811 3.92793 21.9829C3.92793 24.1809 3.63194 28.4465 4.92792 30.2577C3.42794 29.7644 0 25.266 0 20.7676C0 18.7314 0.999984 17.9383 1.83197 17.9383Z" fill="#345A87"/>
<path d="M23.2284 9.94244C22.6324 13.4386 19.9164 15.6562 15.8005 15.6562H5.10066C1.10873 15.6562 0.260742 18.2409 0.260742 18.2409C0.856732 14.7447 2.48071 12.5271 6.59664 12.5271H17.5685C22.1124 12.5271 23.2284 9.94244 23.2284 9.94244Z" fill="#DF2325"/>
<path d="M5.28857 11.8602C6.19656 10.5147 7.24854 10.3963 9.24451 10.3963C11.2405 10.3963 13.5844 10.3529 16.8284 10.3963C20.3203 10.4436 23.0163 8.88892 23.2363 5.5072C22.3283 6.85279 21.1483 7.09744 19.1523 7.09744C17.1564 7.09744 15.9564 7.14084 12.7125 7.09744C9.22451 7.04614 6.49655 8.56535 5.28857 11.8602Z" fill="#EE4523"/>
<path d="M23.2295 2.70163C23.2295 4.04721 21.3615 4.76933 19.1296 4.76933C16.8976 4.76933 12.5777 4.47733 10.7417 5.75583C11.2417 4.28003 15.8016 0.898315 20.3575 0.898315C22.4215 0.898315 23.2295 1.88086 23.2295 2.70163Z" fill="#FE5F3E"/>
<path d="M31.3308 23.8076C27.7869 23.2197 25.5389 20.5403 25.5389 16.4799V5.92834C25.5389 1.99024 22.9189 1.15369 22.9189 1.15369C26.4629 1.74164 28.7108 3.34371 28.7108 7.40414V18.228C28.7108 22.7106 31.3308 23.8076 31.3308 23.8076Z" fill="#172C4F"/>
<path d="M29.3867 6.11481C30.7507 7.01055 30.8707 8.04834 30.8707 10.0174C30.8707 11.9864 30.9147 14.2988 30.8707 17.499C30.8227 20.9438 32.3987 23.6034 35.8266 23.8205C34.4626 22.9247 34.2146 21.7607 34.2146 19.7916C34.2146 17.8226 34.1706 16.6388 34.2146 13.4386C34.2626 9.99372 32.7267 7.3065 29.3867 6.11481Z" fill="#264A74"/>
<path d="M38.6663 23.8087C37.3023 23.8087 36.5703 21.9659 36.5703 19.7641C36.5703 17.5661 36.8663 13.3005 35.5703 11.4893C37.0663 11.9826 40.4942 16.481 40.4942 20.9755C40.4982 23.0156 39.4983 23.8087 38.6663 23.8087Z" fill="#345A87"/>
<path d="M56.9156 5.18774V23.2328H64.1035V27.4116H51.4277V5.18774H56.9156Z" fill="#172C4F"/>
<path d="M80.5361 9.52439H72.2242V14.0189H79.5721V18.1977H72.2242V23.0749H80.5361V27.4116H66.7363V5.18774H80.5361V9.52439Z" fill="#172C4F"/>
<path d="M98.1243 23.4853H89.7164L88.3684 27.4116H82.6245L90.7764 5.18774H97.1323L105.284 27.4116H99.4762L98.1243 23.4853ZM93.9203 11.1699L91.1604 19.3065H96.7123L93.9203 11.1699Z" fill="#172C4F"/>
<path d="M128 16.2997C128 22.8855 123.38 27.4116 116.192 27.4116H107.752V5.18774H116.192C123.38 5.18774 128 9.68223 128 16.2997ZM115.836 22.7237C119.976 22.7237 122.416 20.3798 122.416 16.2957C122.416 12.2116 119.976 9.80455 115.836 9.80455H113.236V22.7198H115.836V22.7237Z" fill="#172C4F"/>
<path d="M77.7883 35.3972H75.4883L75.0923 36.506H74.1523L76.1203 31.0803H77.1643L79.1323 36.506H78.1843L77.7883 35.3972ZM76.6403 32.1536L75.7403 34.6711H77.5363L76.6403 32.1536Z" fill="#172C4F"/>
<path d="M86.8604 33.5176C86.8604 35.1867 85.7044 36.2088 83.9444 36.2088H82.1484V30.7909H83.9444C85.7044 30.787 86.8604 31.8405 86.8604 33.5176ZM83.9444 35.4827C85.2404 35.4827 85.9364 34.7487 85.9364 33.5176C85.9364 32.2785 85.2404 31.513 83.9444 31.513H83.0524V35.4827H83.9444Z" fill="#172C4F"/>
<path d="M93.4771 31.0841H94.425L92.3611 36.5019H91.3171L89.2451 31.0841H90.2091L91.8371 35.5904L93.4771 31.0841Z" fill="#172C4F"/>
<path d="M97.3726 31.0841H98.2721V36.5019H97.3726V31.0841Z" fill="#172C4F"/>
<path d="M103.536 36.5591C102.436 36.5591 101.592 35.9672 101.592 35.0084H102.556C102.596 35.4543 102.912 35.8133 103.536 35.8133C104.168 35.8133 104.524 35.4779 104.524 35.0162C104.524 33.7062 101.608 34.5546 101.608 32.5579C101.608 31.6069 102.376 31.015 103.496 31.015C104.548 31.015 105.292 31.5596 105.368 32.4908H104.372C104.34 32.1238 104.016 31.7884 103.448 31.7726C102.928 31.7569 102.524 32.0055 102.524 32.5303C102.524 33.7535 105.432 32.992 105.432 34.9728C105.432 35.7818 104.76 36.5591 103.536 36.5591Z" fill="#172C4F"/>
<path d="M111.188 36.5587C109.64 36.5587 108.38 35.4143 108.38 33.7807C108.38 32.1589 109.636 31.0106 111.188 31.0106C112.752 31.0106 113.996 32.155 113.996 33.7807C113.996 35.4143 112.756 36.5587 111.188 36.5587ZM111.188 35.7892C112.28 35.7892 113.068 35.0079 113.068 33.7847C113.068 32.5614 112.276 31.7959 111.188 31.7959C110.096 31.7959 109.308 32.5614 109.308 33.7847C109.308 35.0079 110.1 35.7892 111.188 35.7892Z" fill="#172C4F"/>
<path d="M119.096 31.0841C120.4 31.0841 121.04 31.826 121.04 32.7059C121.04 33.3452 120.692 34.0318 119.768 34.2567L121.128 36.5019H120.052L118.788 34.3356H118.1V36.5019H117.2V31.0841H119.096ZM119.096 31.8102H118.1V33.6253H119.096C119.8 33.6253 120.116 33.2426 120.116 32.7059C120.116 32.1614 119.8 31.8102 119.096 31.8102Z" fill="#172C4F"/>
<path d="M126.104 36.5591C125.004 36.5591 124.16 35.9672 124.16 35.0084H125.124C125.164 35.4543 125.48 35.8133 126.104 35.8133C126.736 35.8133 127.092 35.4779 127.092 35.0162C127.092 33.7062 124.176 34.5546 124.176 32.5579C124.176 31.6069 124.944 31.015 126.064 31.015C127.116 31.015 127.86 31.5596 127.936 32.4908H126.94C126.908 32.1238 126.584 31.7884 126.016 31.7726C125.496 31.7569 125.092 32.0055 125.092 32.5303C125.092 33.7535 128 32.992 128 34.9728C128 35.7818 127.328 36.5591 126.104 36.5591Z" fill="#172C4F"/>
</svg>
